<?xml version="1.0" encoding="UTF-8"?>
<svg height="128px" viewBox="0 0 128 128" width="128px" xmlns="http://www.w3.org/2000/svg" xmlns:xlink="http://www.w3.org/1999/xlink">
    <linearGradient id="a" gradientUnits="userSpaceOnUse" x1="8.0000155" x2="120.0000155" y1="115.999977" y2="115.999977">
        <stop offset="0" stop-color="#77767b"/>
        <stop offset="0.0357143" stop-color="#c0bfbc"/>
        <stop offset="0.0713653" stop-color="#9a9996"/>
        <stop offset="0.928571" stop-color="#9a9996"/>
        <stop offset="0.964286" stop-color="#c0bfbc"/>
        <stop offset="1" stop-color="#77767b"/>
    </linearGradient>
    <path d="m 16 40 h 96 c 4.417969 0 8 3.582031 8 8 v 60 c 0 4.417969 -3.582031 8 -8 8 h -96 c -4.417969 0 -8 -3.582031 -8 -8 v -60 c 0 -4.417969 3.582031 -8 8 -8 z m 0 0" fill="url(#a)"/>
    <path d="m 16 28 h 96 c 4.417969 0 8 3.582031 8 8 v 68 c 0 4.417969 -3.582031 8 -8 8 h -96 c -4.417969 0 -8 -3.582031 -8 -8 v -68 c 0 -4.417969 3.582031 -8 8 -8 z m 0 0" fill="#deddda"/>
    <g stroke-linejoin="round">
        <path d="m 8 40 h 16 v 64 h 16 v -64 h 80" fill="none" stroke="#3584e4" stroke-width="4"/>
        <path d="m 61.328125 46.40625 c 1.757813 0 3.34375 0.40625 4.75 1.21875 s 2.5 1.949219 3.28125 3.40625 c 0.789063 1.460938 1.1875 3.101562 1.1875 4.921875 c 0 1.824219 -0.398437 3.492187 -1.1875 5 c -0.78125 1.5 -1.875 2.683594 -3.28125 3.546875 c -1.40625 0.867188 -2.992187 1.296875 -4.75 1.296875 h -9.9375 v 12.765625 c 0 0.417969 -0.136719 0.761719 -0.40625 1.03125 c -0.273437 0.273438 -0.617187 0.40625 -1.03125 0.40625 c -0.417969 0 -0.761719 -0.132812 -1.03125 -0.40625 c -0.273437 -0.269531 -0.40625 -0.613281 -0.40625 -1.03125 v -30.71875 c 0 -0.414062 0.132813 -0.757812 0.40625 -1.03125 c 0.269531 -0.269531 0.613281 -0.40625 1.03125 -0.40625 z m 0 16.609375 c 1.851563 0 3.351563 -0.671875 4.5 -2.015625 c 1.15625 -1.351562 1.734375 -3.035156 1.734375 -5.046875 c 0 -1.988281 -0.578125 -3.601563 -1.734375 -4.84375 c -1.148437 -1.25 -2.648437 -1.875 -4.5 -1.875 h -9.9375 v 13.78125 z m 28.609375 -16.609375 c 1.757812 0 3.34375 0.40625 4.75 1.21875 s 2.5 1.949219 3.28125 3.40625 c 0.789062 1.460938 1.1875 3.101562 1.1875 4.921875 c 0 1.824219 -0.398438 3.492187 -1.1875 5 c -0.78125 1.5 -1.875 2.683594 -3.28125 3.546875 c -1.40625 0.867188 -2.992188 1.296875 -4.75 1.296875 h -9.9375 v 12.765625 c 0 0.417969 -0.136719 0.761719 -0.40625 1.03125 c -0.273438 0.273438 -0.617188 0.40625 -1.03125 0.40625 c -0.417969 0 -0.761719 -0.132812 -1.03125 -0.40625 c -0.273438 -0.269531 -0.40625 -0.613281 -0.40625 -1.03125 v -30.71875 c 0 -0.414062 0.132812 -0.757812 0.40625 -1.03125 c 0.269531 -0.269531 0.613281 -0.40625 1.03125 -0.40625 z m 0 16.609375 c 1.851562 0 3.351562 -0.671875 4.5 -2.015625 c 1.15625 -1.351562 1.734375 -3.035156 1.734375 -5.046875 c 0 -1.988281 -0.578125 -3.601563 -1.734375 -4.84375 c -1.148438 -1.25 -2.648438 -1.875 -4.5 -1.875 h -9.9375 v 13.78125 z m -45.9375 -31.015625" fill="#e01b24" stroke="#ed333b" stroke-width="3"/>
        <path d="m 92.683594 74.324219 c 0.382812 0 0.710937 0.136719 0.984375 0.40625 c 0.269531 0.273437 0.40625 0.617187 0.40625 1.03125 v 30.71875 c 0 0.417969 -0.148438 0.761719 -0.4375 1.03125 c -0.292969 0.273437 -0.640625 0.40625 -1.046875 0.40625 c -0.449219 0 -0.820313 -0.132813 -1.109375 -0.40625 c -0.292969 -0.269531 -0.4375 -0.613281 -0.4375 -1.03125 v -26.40625 l -11.28125 17.09375 c -0.3125 0.417969 -0.679688 0.609375 -1.09375 0.578125 h -0.09375 c -0.386719 0 -0.742188 -0.191406 -1.0625 -0.578125 l -11.28125 -17.1875 v 26.5 c 0 0.417969 -0.136719 0.761719 -0.40625 1.03125 c -0.273438 0.273437 -0.617188 0.40625 -1.03125 0.40625 c -0.417969 0 -0.757813 -0.132813 -1.015625 -0.40625 c -0.25 -0.269531 -0.375 -0.613281 -0.375 -1.03125 v -30.71875 c 0 -0.382813 0.132812 -0.71875 0.40625 -1 c 0.269531 -0.289063 0.613281 -0.4375 1.03125 -0.4375 c 0.21875 0 0.457031 0.058593 0.71875 0.171875 c 0.257812 0.105468 0.453125 0.257812 0.578125 0.453125 l 12.578125 18.859375 l 12.671875 -18.859375 c 0.351562 -0.488281 0.785156 -0.695313 1.296875 -0.625 z m -33.796875 -14.40625" fill="#e01b24" stroke="#ed333b" stroke-width="3"/>
    </g>
</svg>
